<?xml version="1.0" encoding="UTF-8"?>
<svg id="Layer_2" data-name="Layer 2" xmlns="http://www.w3.org/2000/svg" xmlns:xlink="http://www.w3.org/1999/xlink" viewBox="0 0 84.89 91.4">
  <defs>
    <style>
      .cls-1 {
        fill: #bfd4e5;
      }

      .cls-1, .cls-2, .cls-3, .cls-4, .cls-5, .cls-6, .cls-7, .cls-8 {
        stroke-width: 0px;
      }

      .cls-2 {
        fill: url(#radial-gradient);
      }

      .cls-3 {
        fill: #fc0;
      }

      .cls-4 {
        fill: #5393c5;
      }

      .cls-5 {
        fill: #334e63;
      }

      .cls-6 {
        fill: #477ca6;
      }

      .cls-7 {
        fill: #fff;
      }

      .cls-8 {
        fill: #f69;
      }
    </style>
    <radialGradient id="radial-gradient" cx="-612.41" cy="439.53" fx="-612.41" fy="439.53" r="13.58" gradientTransform="translate(893.95 -512.06) rotate(-7.45) scale(1.51 1)" gradientUnits="userSpaceOnUse">
      <stop offset="0" stop-color="#000" stop-opacity=".3"/>
      <stop offset="1" stop-color="#000" stop-opacity="0"/>
    </radialGradient>
  </defs>
  <g id="Layer_1-2" data-name="Layer 1">
    <g>
      <g id="leg_0_Layer0_0_FILL-18" data-name="leg 0 Layer0 0 FILL-18">
        <path class="cls-5" d="M18.06,88.4l5.75-6h5.8v-4.35c0-.83.3-1.55.9-2.15.6-.6,1.32-.9,2.15-.9h.05c.83,0,1.55.3,2.15.9.3.3.53.63.7,1,.13.37.2.75.2,1.15l.3,13.35h-17.9l-.1-3M32.66,76.75c-.4,0-.75.15-1.05.45s-.45.65-.45,1.05.15.75.45,1.05c.3.3.65.45,1.05.45s.75-.15,1.05-.45.45-.65.45-1.05-.15-.75-.45-1.05c-.3-.3-.65-.45-1.05-.45Z"/>
        <path class="cls-6" d="M31.61,77.2c.3-.3.65-.45,1.05-.45s.75.15,1.05.45.45.65.45,1.05-.15.75-.45,1.05-.65.45-1.05.45-.75-.15-1.05-.45-.45-.65-.45-1.05.15-.75.45-1.05M23.16,68.2c0-1.6.63-2.97,1.9-4.1,1.23-1.13,2.75-1.7,4.55-1.7s3.28.57,4.55,1.7c1.27,1.13,1.9,2.5,1.9,4.1l-.5,8.7c-.17-.37-.4-.7-.7-1-.6-.6-1.32-.9-2.15-.9h-.05c-.83,0-1.55.3-2.15.9-.6.6-.9,1.32-.9,2.15v4.35h-5.85l-.6-14.2h0Z"/>
      </g>
      <g id="arm_0_Layer0_0_FILL-30" data-name="arm 0 Layer0 0 FILL-30">
        <path class="cls-6" d="M61.55,38.43c-.67-.55-1.41-.95-2.21-1.17,1.57-1.13,3.06-2.49,4.47-4.09.7-.8,1.63-1.22,2.79-1.26,1.08-.06,2.05.29,2.91,1.04.85.75,1.33,1.68,1.44,2.81.04,1.11-.3,2.06-1,2.87-2.02,2.27-4.16,4.18-6.41,5.73.19-.65.24-1.34.16-2.07-.2-1.54-.91-2.83-2.14-3.84M54.39,47.11c.53.44,1.08.76,1.66.98-3.45,1.13-7.11,1.54-11,1.23-1.14-.08-2.1-.54-2.87-1.39s-1.12-1.81-1.06-2.88c.01-1.11.43-2.04,1.26-2.78.83-.7,1.81-1.01,2.93-.96,2.54.17,4.95-.06,7.25-.69-.3.79-.41,1.65-.32,2.59.2,1.59.92,2.9,2.15,3.91M55.67,43.44c-.02-.19-.01-.38.02-.57.04-.53.25-1.01.61-1.44.49-.59,1.11-.92,1.86-.99.78-.05,1.47.18,2.09.69.46.38.79.82.98,1.33.02.19.04.38.05.56.06.35.07.64.05.88-.1.44-.3.83-.6,1.19-.49.59-1.13.9-1.94.93-.75.07-1.43-.15-2.05-.66-.39-.32-.66-.67-.81-1.06-.12-.27-.21-.56-.26-.86h0Z"/>
        <path class="cls-5" d="M63.54,44.35c-.16.77-.51,1.48-1.04,2.12-.98,1.18-2.27,1.84-3.9,1.97-.9.07-1.75-.05-2.56-.36-.57-.21-1.13-.54-1.66-.98-1.23-1.02-1.95-2.32-2.15-3.91-.09-.94.02-1.8.32-2.59.21-.56.51-1.09.91-1.58.98-1.18,2.26-1.85,3.86-2,.72-.04,1.39.04,2.01.23.8.23,1.54.62,2.21,1.17,1.23,1.02,1.95,2.3,2.14,3.84.08.74.03,1.43-.16,2.07M55.69,42.87c-.03.19-.03.38-.02.57.05.3.14.59.26.86.16.39.43.74.81,1.06.62.51,1.3.73,2.05.66.8-.03,1.45-.34,1.94-.93.3-.36.5-.76.6-1.19.02-.24,0-.53-.05-.88-.02-.19-.04-.38-.05-.56-.19-.5-.52-.94-.98-1.33-.62-.51-1.31-.74-2.09-.69-.75.07-1.37.4-1.86.99-.36.44-.56.92-.61,1.44h0Z"/>
      </g>
      <g id="arm_0_Layer0_0_FILL-31" data-name="arm 0 Layer0 0 FILL-31">
        <path class="cls-6" d="M11.23,63.08c.86.11,1.7.06,2.49-.17-.74,1.79-1.28,3.74-1.63,5.84-.17,1.05-.74,1.9-1.7,2.55-.89.62-1.89.84-3.01.66s-2.02-.72-2.71-1.62c-.62-.92-.84-1.91-.67-2.96.51-2.99,1.31-5.74,2.4-8.26.18.65.51,1.26.97,1.84.98,1.21,2.27,1.91,3.85,2.12M12.71,51.93c-.68-.09-1.32-.07-1.92.05,2.32-2.79,5.22-5.08,8.68-6.87,1.01-.54,2.07-.65,3.17-.34s1.91.94,2.42,1.88c.58.95.72,1.96.41,3.03-.34,1.03-1,1.82-1.98,2.36-2.24,1.2-4.17,2.68-5.78,4.43-.16-.83-.53-1.62-1.1-2.36-1.01-1.24-2.31-1.97-3.9-2.18M13.57,55.72c.11.15.21.31.29.49.24.47.32.98.25,1.55-.1.76-.45,1.37-1.05,1.83-.63.45-1.34.63-2.14.52-.59-.08-1.11-.28-1.53-.61-.11-.15-.23-.3-.34-.45-.23-.27-.4-.51-.51-.72-.15-.42-.19-.87-.13-1.33.1-.76.48-1.37,1.15-1.81.6-.46,1.29-.64,2.09-.53.5.07.91.22,1.25.47.25.17.47.37.68.59h0Z"/>
        <path class="cls-5" d="M6.41,59.11c-.27-.74-.35-1.53-.24-2.35.2-1.52.95-2.77,2.26-3.74.72-.54,1.51-.89,2.36-1.05.6-.12,1.24-.14,1.92-.05,1.59.21,2.89.94,3.9,2.18.57.75.94,1.53,1.1,2.36.12.59.14,1.2.06,1.82-.2,1.52-.94,2.77-2.21,3.74-.59.41-1.2.7-1.83.87-.8.23-1.63.29-2.49.17-1.59-.21-2.87-.92-3.85-2.12-.46-.58-.78-1.2-.97-1.84M13.86,56.22c-.08-.18-.17-.34-.29-.49-.21-.23-.43-.43-.68-.59-.34-.25-.75-.4-1.25-.47-.79-.11-1.49.07-2.09.53-.66.45-1.05,1.05-1.15,1.81-.06.46-.02.91.13,1.33.11.22.28.46.51.72.11.15.23.3.34.45.43.33.94.53,1.53.61.79.11,1.51-.07,2.14-.52.6-.46.95-1.07,1.05-1.83.07-.56,0-1.08-.25-1.55h0Z"/>
      </g>
      <g id="legBend_0_Layer0_0_FILL-12" data-name="legBend 0 Layer0 0 FILL-12">
        <path class="cls-5" d="M47.79,69.42h-.05c-.82-.18-1.59-.04-2.3.43-.36.23-.65.52-.89.87-.2.32-.33.67-.4,1.07l-.92,3.88-2.59,8.69,17.17,4.3.83-2.88-3.83-7.2-5.55-1.33.9-4.18c.15-.82-.02-1.59-.48-2.31-.43-.71-1.06-1.16-1.88-1.33M48.56,72.91c-.07.4-.27.71-.59.95-.35.2-.73.27-1.12.19-.4-.07-.71-.27-.95-.59-.23-.36-.32-.73-.24-1.13.07-.4.3-.71.69-.94.36-.23.73-.32,1.13-.24.4.07.71.29.94.64.17.35.22.72.14,1.12h0Z"/>
        <path class="cls-6" d="M47.96,73.86c.32-.24.52-.55.59-.95s.02-.77-.14-1.12c-.23-.36-.55-.57-.94-.64-.4-.07-.77,0-1.13.24-.39.23-.62.54-.69.94-.07.4.01.77.24,1.13.24.32.55.52.95.59.4.07.77,0,1.12-.19M42.62,58.28c-1.6.25-2.88,1.03-3.84,2.35-.97,1.35-1.33,2.84-1.08,4.47.25,1.6,1.05,2.9,2.39,3.89,1.22.89,2.09,1.94,2.61,3.16v.05c.41,1.07.59,2.22.52,3.47l.92-3.88c.07-.4.21-.75.4-1.07.23-.35.53-.64.89-.87.71-.47,1.48-.61,2.3-.43h.05c.82.18,1.45.63,1.88,1.34.47.71.63,1.48.48,2.31l-.9,4.18,5.55,1.33c.32-2.35.38-4.53.17-6.56-.68-5.12-3.31-9.34-7.88-12.66-1.34-1-2.83-1.36-4.47-1.08h0Z"/>
      </g>
      <g>
        <g id="body_0_Layer0_0_FILL-12" data-name="body 0 Layer0 0 FILL-12">
          <path class="cls-5" d="M21.93,50.35c1.12-1.42,1.57-3.03,1.34-4.81s-1.08-3.22-2.53-4.31c-1.42-1.09-3.02-1.52-4.81-1.29s-3.21,1.06-4.27,2.47c-1.09,1.42-1.52,3.02-1.29,4.81s1.06,3.22,2.48,4.31c1.39,1.1,2.97,1.53,4.76,1.29s3.22-1.06,4.31-2.48M55.7,45.94c1.09-1.42,1.52-3.02,1.29-4.81s-1.06-3.22-2.48-4.31-3.02-1.52-4.81-1.29-3.21,1.06-4.27,2.47c-1.12,1.42-1.57,3.03-1.34,4.81s1.08,3.22,2.53,4.31c1.39,1.1,2.97,1.53,4.76,1.29s3.22-1.06,4.31-2.48h0Z"/>
        </g>
        <g id="body_0_Layer0_1_FILL-12" data-name="body 0 Layer0 1 FILL-12">
          <path class="cls-4" d="M50.54,69.71c.76-1.41,1.03-3.21.81-5.4l-29.65,3.88c.35,2.17,1.07,3.84,2.17,5.01l26.67-3.49h0Z"/>
          <path class="cls-5" d="M44.1,60.21c.7-1.57.93-3.28.69-5.13-.35-2.64-1.57-4.79-3.67-6.43-2.13-1.64-4.52-2.28-7.16-1.94s-4.78,1.58-6.42,3.71-2.28,4.52-1.94,7.16c.24,1.85.92,3.44,2.04,4.78l-6.59.86.65,4.96,29.65-3.88-.65-4.96-6.59.86M40.03,54.14l-.95,5.42c-.02.14-.08.26-.2.38-.12.12-.26.19-.43.21l-5.21.68c-.13.02-.27,0-.42-.1-.18-.08-.29-.18-.34-.31l-2.32-4.99c-.05-.16-.08-.33-.06-.5.05-.14.13-.29.25-.44l3.85-3.68c.09-.11.21-.18.38-.2.13-.02.29,0,.47.09l4.62,2.57c.12.12.22.24.3.36.05.16.08.33.06.5h0Z"/>
          <path class="cls-8" d="M39.07,59.56l.95-5.42c.01-.17-.01-.33-.06-.5-.08-.12-.18-.24-.3-.36l-4.62-2.57c-.18-.08-.33-.11-.47-.09-.17.02-.29.09-.38.2l-3.85,3.68c-.11.15-.2.29-.25.44-.01.17.01.33.06.5l2.32,4.99c.05.13.16.23.34.31.15.08.28.11.42.1l5.21-.68c.17-.02.31-.09.43-.21.12-.12.19-.24.2-.38h0Z"/>
          <path class="cls-6" d="M52.13,45.29c.39-3.41-.58-5.05-2.91-4.91l-5.3.69-.03-.25c.01-.17,0-.34-.02-.5-.32-2.48-1.61-4.48-3.86-6-2.3-1.41-4.91-1.93-7.82-1.55s-5.29,1.55-7.16,3.51c-1.78,2.05-2.51,4.31-2.19,6.79.02.17.06.33.11.49.01.1.04.18.08.24l-5.11.67c-2.43.18-3.06,2.03-1.9,5.54l5.01,13.21,6.59-.86c-1.12-1.33-1.79-2.93-2.04-4.78-.35-2.64.3-5.03,1.94-7.16s3.78-3.37,6.42-3.71,5.03.3,7.16,1.94c2.1,1.64,3.32,3.78,3.67,6.43.24,1.85.01,3.56-.69,5.13l6.59-.86,1.44-14.06h.02Z"/>
        </g>
      </g>
      <g id="hand_0_Layer0_0_FILL-29" data-name="hand 0 Layer0 0 FILL-29">
        <path class="cls-1" d="M78.51,30.23c-.01.09.03.12.13.09.12,0,.24-.04.37-.09l2.78-2.13c.08-.06.15-.18.23-.36-.01-.07-.05-.15-.11-.23-1.16-1.46-2.68-2.32-4.55-2.56l-.03-.04c-1.96-.26-3.76.19-5.39,1.36-1.63,1.21-2.6,2.77-2.9,4.68l-.03.21c.31-.21.64-.38.99-.51,1.21-.5,2.44-.52,3.68-.05.19-.35.44-.65.76-.9.65-.41,1.34-.61,2.07-.58.02.03.06.06.13.09.73.07,1.35.42,1.86,1.03M72.47,40.6c.22.18.44.37.68.55,1.48,1.22,3.23,1.72,5.26,1.52,1.98-.26,3.61-1.15,4.88-2.67l.08-.06c1.15-1.51,1.65-3.19,1.49-5.05,0-.12-.04-.22-.1-.3-.07-.03-.15-.03-.25,0l-3.61.31c-.09,0-.17,0-.22.04-.07.13-.1.25-.12.34.05.72-.16,1.38-.62,1.99l-.08.06c-.48.58-1.11.91-1.88,1-.61.06-1.16-.02-1.64-.25-.64.97-1.49,1.68-2.57,2.16-.43.16-.86.29-1.3.36Z"/>
        <path class="cls-4" d="M67.14,33.4c-.57,1.28-.62,2.59-.13,3.94.49,1.3,1.41,2.26,2.76,2.86.91.36,1.8.49,2.69.39.44-.08.87-.2,1.3-.36,1.07-.47,1.93-1.19,2.57-2.16.11-.21.23-.42.33-.63.55-1.31.57-2.62.06-3.95-.54-1.31-1.45-2.25-2.73-2.82-.1-.04-.2-.07-.31-.08-1.24-.47-2.47-.45-3.68.05-.36.13-.69.3-.99.51-.83.51-1.46,1.26-1.87,2.25h0Z"/>
      </g>
      <g id="hand_0_Layer0_0_FILL-30" data-name="hand 0 Layer0 0 FILL-30">
        <path class="cls-1" d="M6.33,78.59c.08-.05.13-.02.13.09.04.11.05.24.05.38l-.98,3.36c-.03.1-.11.21-.26.34-.07,0-.16,0-.25-.02-1.78-.55-3.13-1.66-4.03-3.31h-.05c-.95-1.75-1.18-3.59-.68-5.53.54-1.96,1.64-3.43,3.31-4.4l.19-.1c-.09.36-.12.73-.12,1.11-.03,1.31.4,2.46,1.29,3.45-.26.3-.45.65-.56,1.03-.15.75-.08,1.47.21,2.14.03,0,.08.04.13.09.33.65.88,1.11,1.63,1.36M13.81,69.21c.25.14.5.28.76.43,1.67.94,2.78,2.39,3.31,4.35.47,1.94.23,3.78-.72,5.52l-.03.1c-.99,1.62-2.38,2.69-4.17,3.21-.11.04-.22.04-.32,0-.05-.05-.08-.13-.09-.23l-1.02-3.47c-.05-.08-.06-.16-.04-.22.1-.11.19-.19.28-.23.69-.22,1.23-.65,1.63-1.3l.03-.1c.37-.66.45-1.36.25-2.11-.16-.59-.44-1.07-.83-1.44.67-.94,1.03-2,1.08-3.17,0-.46-.04-.9-.13-1.34h.01Z"/>
        <path class="cls-4" d="M5.17,66.85c.99-1,2.19-1.51,3.63-1.55,1.39,0,2.61.5,3.67,1.54.66.71,1.11,1.5,1.34,2.37.09.44.13.88.13,1.34-.05,1.17-.41,2.23-1.08,3.17-.15.18-.31.36-.47.54-1.02.99-2.24,1.48-3.66,1.48-1.41-.03-2.62-.54-3.62-1.52-.07-.08-.14-.17-.18-.26-.89-.99-1.31-2.14-1.29-3.45,0-.38.03-.75.12-1.11.17-.96.64-1.81,1.42-2.55h-.01Z"/>
      </g>
      <g id="shadow_0_Layer0_0_FILL-19" data-name="shadow 0 Layer0 0 FILL-19">
        <path class="cls-2" d="M47.39,32.28c-4.22-2.07-9.1-2.74-14.63-2.02s-10.12,2.64-13.77,5.73c-3.54,3.15-5.07,6.56-4.59,10.23s2.83,6.54,7.06,8.61c4.33,2.12,9.26,2.82,14.79,2.1s10.07-2.66,13.61-5.81c3.65-3.1,5.23-6.48,4.75-10.15s-2.89-6.56-7.22-8.69Z"/>
      </g>
      <g>
        <g id="headFocus_0_Layer0_0_FILL-8" data-name="headFocus 0 Layer0 0 FILL-8">
          <path class="cls-1" d="M44.83,28.27c2.98-3.8,4.17-8.1,3.57-12.9s-2.82-8.68-6.66-11.66S33.59-.45,28.79.15s-8.68,2.82-11.66,6.66-4.16,8.15-3.56,12.95,2.82,8.67,6.65,11.61c3.84,3.01,8.16,4.21,12.95,3.61s8.68-2.84,11.65-6.71M40.85,16.33c.34,2.71-.33,5.15-2,7.31-1.71,2.2-3.91,3.47-6.63,3.81s-5.15-.34-7.31-2.05c-2.19-1.67-3.46-3.86-3.8-6.58s.34-5.15,2.05-7.31c1.67-2.19,3.86-3.46,6.58-3.8s5.17.34,7.36,2.05c2.16,1.68,3.41,3.87,3.75,6.58h0Z"/>
          <path class="cls-7" d="M38.85,23.63c1.68-2.16,2.34-4.6,2-7.31s-1.59-4.91-3.75-6.58c-2.2-1.71-4.65-2.39-7.36-2.05s-4.9,1.61-6.58,3.8c-1.71,2.16-2.39,4.6-2.05,7.31s1.61,4.9,3.8,6.58c2.16,1.71,4.6,2.39,7.31,2.05s4.92-1.61,6.63-3.81h0Z"/>
        </g>
        <g id="headFocus_0_Layer0_1_FILL-8" data-name="headFocus 0 Layer0 1 FILL-8">
          <path class="cls-6" d="M14.28,8.59c-.58.44-.93,1.04-1.03,1.79l-1.16,8.41c-.11.75.07,1.45.52,2.1.51.57,1.14.91,1.89,1.02h.05c.75.1,1.44-.05,2.06-.47.61-.51.96-1.15,1.07-1.9l1.11-8.4c.11-.75-.08-1.43-.56-2.05-.45-.62-1.03-.98-1.75-1.09h-.05c-.75-.1-1.47.09-2.15.58h0Z"/>
        </g>
        <g id="headFocus_0_Layer0_2_FILL-8" data-name="headFocus 0 Layer0 2 FILL-8">
          <path class="cls-6" d="M46.53,6.19c-.29-.7-.77-1.2-1.45-1.48-.78-.31-1.52-.31-2.22-.02h-.05c-.7.3-1.19.79-1.47,1.5-.31.71-.33,1.42-.04,2.12l3.21,7.86c.29.7.79,1.23,1.51,1.57.7.25,1.41.23,2.11-.06h.05c.67-.29,1.18-.78,1.53-1.46.28-.74.27-1.46-.02-2.16l-3.16-7.87h0Z"/>
        </g>
        <g id="headFocus_0_Layer0_3_FILL-8" data-name="headFocus 0 Layer0 3 FILL-8">
          <path class="cls-4" d="M8.13,28.96c-1.36,1.75-1.9,3.72-1.63,5.9s1.29,3.94,3.03,5.26c1.79,1.39,3.76,1.95,5.91,1.68s3.97-1.31,5.36-3.09c1.33-1.71,1.86-3.66,1.58-5.84s-1.27-3.96-2.99-5.32c-1.79-1.39-3.77-1.94-5.96-1.67-2.15.27-3.92,1.3-5.31,3.09M11.54,37.66c-1.04-.81-1.65-1.88-1.81-3.2s.16-2.47.96-3.55c.81-1.04,1.86-1.65,3.15-1.81,1.36-.17,2.56.15,3.6.96,1.05.84,1.65,1.91,1.81,3.2.17,1.32-.15,2.51-.96,3.55-.81,1.08-1.89,1.7-3.24,1.87s-2.46-.18-3.5-1.02M50.14,21.26c-2.15.27-3.92,1.3-5.31,3.09-1.36,1.75-1.9,3.72-1.63,5.9s1.29,3.94,3.03,5.26c1.79,1.39,3.76,1.95,5.91,1.68s3.97-1.31,5.36-3.09c1.33-1.71,1.86-3.66,1.58-5.84s-1.27-3.96-2.99-5.32c-1.79-1.39-3.77-1.94-5.96-1.67M51.75,34.05c-1.29.16-2.46-.18-3.5-1.02-1.08-.81-1.7-1.87-1.86-3.19s.18-2.47,1.01-3.55c.81-1.04,1.86-1.65,3.15-1.81s2.52.15,3.6.96c1.05.84,1.65,1.91,1.81,3.2s-.15,2.51-.96,3.55c-.84,1.08-1.92,1.7-3.24,1.87h-.01Z"/>
          <path class="cls-6" d="M9.73,34.46c.17,1.32.77,2.39,1.81,3.2,1.05.84,2.22,1.18,3.5,1.02,1.36-.17,2.44-.79,3.24-1.87.81-1.04,1.13-2.23.96-3.55-.16-1.29-.77-2.36-1.81-3.2-1.04-.81-2.24-1.13-3.6-.96s-2.34.76-3.15,1.81c-.81,1.08-1.13,2.26-.96,3.55M48.25,33.03c1.05.84,2.22,1.18,3.5,1.02s2.4-.79,3.24-1.87c.81-1.04,1.13-2.23.96-3.55s-.77-2.36-1.81-3.2c-1.08-.81-2.28-1.12-3.6-.96s-2.34.76-3.15,1.81c-.84,1.08-1.18,2.26-1.01,3.55s.79,2.39,1.86,3.19h.01Z"/>
        </g>
        <g id="headFocus_0_Layer0_4_FILL-8" data-name="headFocus 0 Layer0 4 FILL-8">
          <path class="cls-5" d="M16.9,47.01l7.94-1c-.85-6.48-4.45-10.29-10.81-11.44l2.88,12.44M46.57,43.27c3.48-.91,5.26-3.05,5.34-6.42l-.2-8.79c-5.6,3.83-8.11,9-7.52,15.51l2.38-.3Z"/>
          <path class="cls-4" d="M51.71,28.06l-.38-16.99-41.52,5.23,4.22,18.27c6.36,1.15,9.96,4.96,10.81,11.44l19.35-2.44c-.58-6.51,1.92-11.68,7.52-15.51Z"/>
        </g>
        <g id="headFocus_0_Layer0_5_FILL-8" data-name="headFocus 0 Layer0 5 FILL-8">
          <path class="cls-6" d="M38.79,31.55c1.36-1.75,1.9-3.72,1.63-5.9-.28-2.22-1.29-3.99-3.04-5.31-1.75-1.36-3.72-1.9-5.9-1.63s-3.99,1.29-5.31,3.04c-1.36,1.72-1.9,3.68-1.63,5.9s1.29,3.95,3.04,5.31c1.72,1.36,3.68,1.9,5.9,1.63s3.95-1.29,5.31-3.04M37.79,25.99c.18,1.46-.19,2.76-1.12,3.92-.89,1.19-2.07,1.87-3.52,2.06s-2.83-.18-4.02-1.11c-1.15-.9-1.82-2.07-2.01-3.53s.16-2.83,1.06-4.01c.93-1.13,2.14-1.78,3.63-1.97,1.46-.18,2.76.16,3.91,1.02,1.19.93,1.88,2.13,2.07,3.62h0Z"/>
          <path class="cls-3" d="M36.67,29.91c.93-1.16,1.3-2.47,1.12-3.92s-.88-2.69-2.07-3.62c-1.15-.86-2.45-1.2-3.91-1.02-1.49.19-2.7.84-3.63,1.97-.89,1.19-1.24,2.53-1.06,4.01s.85,2.63,2.01,3.53c1.19.93,2.53,1.29,4.02,1.11s2.63-.87,3.52-2.06M35.55,26.27c.07.6-.08,1.12-.46,1.57-.31.48-.76.75-1.36.83s-1.13-.08-1.62-.45c-.45-.35-.71-.82-.78-1.41s.06-1.13.4-1.61c.38-.45.87-.71,1.46-.79.6-.07,1.1.06,1.51.41.48.38.76.86.84,1.46h0Z"/>
          <path class="cls-7" d="M35.1,27.84c.38-.45.53-.97.46-1.57s-.35-1.08-.84-1.46c-.41-.35-.92-.49-1.51-.41-.6.07-1.08.34-1.46.79-.34.48-.48,1.02-.4,1.61s.34,1.07.78,1.41c.48.38,1.02.53,1.62.45s1.05-.35,1.36-.83h0Z"/>
        </g>
        <g id="headFocus_0_Layer0_6_FILL-8" data-name="headFocus 0 Layer0 6 FILL-8">
          <path class="cls-6" d="M48,27.07c.52-.64.74-1.35.64-2.15s-.49-1.45-1.16-1.97c-.63-.49-1.35-.69-2.14-.59s-1.45.47-1.98,1.11c-.49.67-.68,1.4-.58,2.19s.47,1.44,1.1,1.93c.67.49,1.4.68,2.19.58.79-.1,1.44-.47,1.93-1.1Z"/>
        </g>
        <g id="headFocus_0_Layer0_7_FILL-8" data-name="headFocus 0 Layer0 7 FILL-8">
          <path class="cls-6" d="M21.51,30.4c.52-.64.74-1.35.64-2.15s-.49-1.45-1.16-1.97c-.63-.49-1.33-.69-2.09-.59-.79.1-1.45.47-1.98,1.11-.49.67-.68,1.4-.58,2.19s.47,1.44,1.1,1.93c.67.49,1.4.68,2.19.58.76-.1,1.39-.46,1.88-1.09h0Z"/>
        </g>
        <g id="headFocus_0_Layer0_8_FILL-8" data-name="headFocus 0 Layer0 8 FILL-8">
          <path class="cls-4" d="M41.82,17.62c-.98-.62-2.12-.84-3.41-.68l-13.59,1.71c-1.29.16-2.35.67-3.19,1.51-.8.87-1.13,1.84-1,2.9s.69,1.89,1.68,2.51c1.02.64,2.18.88,3.47.72l13.59-1.71c1.29-.16,2.33-.68,3.13-1.55.83-.84,1.18-1.8,1.05-2.85-.13-1.06-.71-1.91-1.73-2.55h0Z"/>
        </g>
        <g id="headFocus_0_Layer0_9_FILL-8" data-name="headFocus 0 Layer0 9 FILL-8">
          <path class="cls-5" d="M35.07,38.83c-.16-.21-.4-.34-.7-.37l-5.96-.91c-.31-.06-.61,0-.89.16-.21.19-.33.46-.35.8-.06.34,0,.64.16.89.2.24.45.4.76.46l5.96.91c.31.03.58-.06.82-.26.21-.16.35-.41.41-.76.02-.34-.05-.65-.22-.93h.01Z"/>
        </g>
      </g>
    </g>
  </g>
</svg>